<svg xmlns="http://www.w3.org/2000/svg" width="1024" height="1024" viewBox="0 0 1024 1024">
  <defs>
    <linearGradient id="bg" x1="120" y1="80" x2="920" y2="960" gradientUnits="userSpaceOnUse">
      <stop offset="0" stop-color="#2B6CB0"/>
      <stop offset="1" stop-color="#174E63"/>
    </linearGradient>
    <linearGradient id="accent" x1="350" y1="270" x2="720" y2="760" gradientUnits="userSpaceOnUse">
      <stop offset="0" stop-color="#FFD56A"/>
      <stop offset="1" stop-color="#FFB84D"/>
    </linearGradient>
  </defs>
  <rect width="1024" height="1024" fill="url(#bg)"/>
  <rect x="190" y="196" width="644" height="652" rx="116" fill="#F8FBFF"/>
  <path d="M190 350C190 265.5 258.5 197 343 197h338c84.5 0 153 68.5 153 153v56H190z" fill="url(#accent)"/>
  <rect x="326" y="132" width="74" height="188" rx="37" fill="#F8FBFF"/>
  <rect x="624" y="132" width="74" height="188" rx="37" fill="#F8FBFF"/>
  <g fill="#2B6CB0">
    <rect x="296" y="478" width="112" height="96" rx="26"/>
    <rect x="456" y="478" width="112" height="96" rx="26" opacity=".72"/>
    <rect x="616" y="478" width="112" height="96" rx="26" opacity=".45"/>
    <rect x="296" y="622" width="112" height="96" rx="26" opacity=".55"/>
    <rect x="456" y="622" width="112" height="96" rx="26" opacity=".88"/>
  </g>
  <circle cx="680" cy="682" r="118" fill="#1E7A68"/>
  <path d="M624 683l38 38 78-88" fill="none" stroke="#fff" stroke-width="38" stroke-linecap="round" stroke-linejoin="round"/>
</svg>
